<svg width="189" height="56" viewBox="0 0 189 56" fill="none" xmlns="http://www.w3.org/2000/svg">
<path d="M187.672 49.3961C187.672 52.3566 185.281 54.7706 182.297 54.7706H6.59976C3.6392 54.7706 1.22522 52.3794 1.22522 49.3961V6.62747C1.22522 3.66692 3.6392 1.25293 6.59976 1.25293H182.297C185.258 1.25293 187.672 3.66692 187.672 6.62747V49.3961Z" fill="white"/>
<path d="M182.325 56H6.62709C2.98333 56 0 53.0394 0 49.3957V6.62708C0 2.98333 2.96056 0 6.62709 0H182.325C185.968 0 188.952 2.96055 188.952 6.62708V49.3957C188.929 53.0394 185.968 56 182.325 56Z" fill="#A6A6A6"/>
<path d="M187.672 49.3961C187.672 52.3566 185.281 54.7706 182.297 54.7706H6.59976C3.6392 54.7706 1.22522 52.3794 1.22522 49.3961V6.62747C1.22522 3.66692 3.6392 1.25293 6.59976 1.25293H182.297C185.258 1.25293 187.672 3.66692 187.672 6.62747V49.3961Z" fill="black"/>
<path d="M42.1798 27.7157C42.1343 23.2065 45.8691 20.9975 46.0513 20.9064C43.9334 17.832 40.654 17.3993 39.4925 17.3765C36.737 17.0804 34.0725 19.0162 32.6605 19.0162C31.2258 19.0162 29.0623 17.3993 26.7394 17.4448C23.7333 17.4904 20.9322 19.2212 19.4063 21.9312C16.2408 27.4196 18.6093 35.5042 21.6381 39.945C23.164 42.1313 24.9403 44.5453 27.2632 44.4542C29.5405 44.3631 30.3831 42.9967 33.1387 42.9967C35.8488 42.9967 36.6686 44.4542 39.0371 44.3859C41.4738 44.3403 43.0224 42.1996 44.4799 40.0134C46.2335 37.531 46.9395 35.0715 46.9622 34.9349C46.9167 34.9121 42.2254 33.113 42.1798 27.7157Z" fill="white"/>
<path d="M37.6941 14.4383C38.9238 12.9125 39.7664 10.8173 39.5159 8.72217C37.7396 8.79049 35.5306 9.95194 34.2553 11.455C33.1166 12.7758 32.1146 14.9393 32.3878 16.9662C34.3919 17.1028 36.4187 15.9414 37.6941 14.4383Z" fill="white"/>
<path d="M75.1499 44.1126H71.9616L70.2308 38.647H64.1503L62.4878 44.1126H59.3906L65.38 25.4839H69.0921L75.1499 44.1126ZM69.6842 36.3468L68.1129 31.4733C67.9535 30.9723 67.6346 29.8108 67.1792 27.9662H67.1336C66.9514 28.7633 66.6554 29.9247 66.2454 31.4733L64.6968 36.3468H69.6842Z" fill="white"/>
<path d="M90.5475 37.2346C90.5475 39.5119 89.9326 41.3338 88.6801 42.6547C87.5642 43.8389 86.175 44.431 84.5353 44.431C82.759 44.431 81.4837 43.7933 80.7094 42.518V49.5778H77.7261V35.1166C77.7261 33.6819 77.6805 32.2016 77.6122 30.6986H80.2311L80.3905 32.8393H80.4361C81.4381 31.2451 82.9412 30.4253 84.968 30.4253C86.5622 30.4253 87.883 31.0402 88.9306 32.3155C90.001 33.5453 90.5475 35.1849 90.5475 37.2346ZM87.4959 37.3484C87.4959 36.0503 87.1998 34.9572 86.6077 34.1146C85.9701 33.2264 85.1047 32.7937 84.0115 32.7937C83.2828 32.7937 82.5996 33.0442 82.0075 33.5225C81.4154 34.0235 81.0054 34.6612 80.8232 35.4355C80.7322 35.7998 80.6866 36.0959 80.6866 36.3464V38.5782C80.6866 39.5575 80.9827 40.3773 81.5748 41.0605C82.1669 41.7437 82.9639 42.0625 83.9204 42.0625C85.0363 42.0625 85.9245 41.6298 86.5394 40.7645C87.177 39.8991 87.4959 38.7604 87.4959 37.3484Z" fill="white"/>
<path d="M105.991 37.2346C105.991 39.5119 105.376 41.3338 104.124 42.6547C103.008 43.8389 101.619 44.431 99.9792 44.431C98.2028 44.431 96.9275 43.7933 96.1532 42.518V49.5778H93.1699V35.1166C93.1699 33.6819 93.1244 32.2016 93.056 30.6986H95.675L95.8344 32.8393H95.8799C96.882 31.2451 98.385 30.4253 100.412 30.4253C102.006 30.4253 103.327 31.0402 104.374 32.3155C105.468 33.5453 105.991 35.1849 105.991 37.2346ZM102.962 37.3484C102.962 36.0503 102.666 34.9572 102.074 34.1146C101.437 33.2264 100.571 32.7937 99.4782 32.7937C98.7494 32.7937 98.0662 33.0442 97.4741 33.5225C96.882 34.0235 96.4948 34.6612 96.2899 35.4355C96.1988 35.7998 96.1532 36.0959 96.1532 36.3464V38.5782C96.1532 39.5575 96.4493 40.3773 97.0414 41.0605C97.6335 41.7209 98.4306 42.0625 99.3871 42.0625C100.503 42.0625 101.391 41.6298 102.006 40.7645C102.644 39.8991 102.962 38.7604 102.962 37.3484Z" fill="white"/>
<path d="M123.273 38.8972C123.273 40.4913 122.727 41.7666 121.611 42.7687C120.404 43.8618 118.696 44.4084 116.532 44.4084C114.528 44.4084 112.911 44.0212 111.704 43.2469L112.388 40.7646C113.686 41.5389 115.143 41.926 116.692 41.926C117.808 41.926 118.696 41.6755 119.311 41.1745C119.926 40.6735 120.245 39.9903 120.245 39.1477C120.245 38.3962 119.994 37.7585 119.47 37.2347C118.946 36.7109 118.104 36.2327 116.897 35.8C113.64 34.593 112.001 32.7939 112.001 30.471C112.001 28.9452 112.57 27.6926 113.731 26.7134C114.893 25.7341 116.419 25.2559 118.309 25.2559C119.994 25.2559 121.429 25.5519 122.545 26.144L121.793 28.5808C120.746 28.0114 119.539 27.7154 118.218 27.7154C117.17 27.7154 116.327 27.9659 115.758 28.4897C115.257 28.9452 115.007 29.5145 115.007 30.1749C115.007 30.9037 115.303 31.5186 115.872 31.9968C116.373 32.4295 117.261 32.9077 118.582 33.4315C120.176 34.0692 121.36 34.8207 122.112 35.6861C122.909 36.5287 123.273 37.5991 123.273 38.8972Z" fill="white"/>
<path d="M133.17 32.9306H129.868V39.4438C129.868 41.1063 130.437 41.9261 131.599 41.9261C132.122 41.9261 132.578 41.8806 132.92 41.7895L133.011 44.0668C132.418 44.2945 131.644 44.4084 130.688 44.4084C129.503 44.4084 128.593 44.044 127.932 43.3381C127.272 42.6093 126.93 41.4023 126.93 39.7171V32.9306H124.972V30.6988H126.93V28.2392L129.868 27.3511V30.6988H133.17C133.17 30.676 133.17 32.9306 133.17 32.9306Z" fill="white"/>
<path d="M148 37.3029C148 39.3753 147.408 41.0605 146.224 42.3814C144.994 43.7478 143.355 44.431 141.305 44.431C139.324 44.431 137.752 43.7706 136.591 42.4725C135.429 41.1744 134.837 39.5119 134.837 37.5306C134.837 35.4582 135.452 33.7502 136.659 32.4066C137.866 31.0857 139.506 30.4253 141.533 30.4253C143.514 30.4253 145.085 31.0857 146.292 32.3838C147.408 33.6364 148 35.276 148 37.3029ZM144.903 37.3712C144.903 36.1414 144.63 35.0939 144.106 34.2057C143.491 33.1353 142.58 32.6115 141.419 32.6115C140.212 32.6115 139.301 33.1353 138.686 34.2057C138.162 35.0939 137.889 36.1642 137.889 37.4395C137.889 38.6693 138.162 39.7396 138.686 40.605C139.324 41.6754 140.235 42.1992 141.396 42.1992C142.535 42.1992 143.423 41.6526 144.083 40.5823C144.607 39.6486 144.903 38.601 144.903 37.3712Z" fill="white"/>
<path d="M157.707 33.3178C157.411 33.2723 157.092 33.2267 156.773 33.2267C155.726 33.2267 154.906 33.6139 154.337 34.411C153.836 35.1169 153.585 36.0051 153.585 37.0755V44.1353H150.602V34.9348C150.602 33.3862 150.579 31.9742 150.511 30.6989H153.107L153.221 33.2723H153.312C153.631 32.3841 154.132 31.6782 154.815 31.1316C155.475 30.6533 156.204 30.4028 156.978 30.4028C157.252 30.4028 157.502 30.4256 157.73 30.4484L157.707 33.3178Z" fill="white"/>
<path d="M171.052 36.7566C171.052 37.2804 171.006 37.7359 170.938 38.1002H161.988C162.011 39.4211 162.466 40.4459 163.286 41.1519C164.038 41.7668 165.017 42.0856 166.224 42.0856C167.545 42.0856 168.752 41.8806 169.845 41.4479L170.323 43.5203C169.048 44.0669 167.545 44.3402 165.814 44.3402C163.742 44.3402 162.102 43.7253 160.895 42.4955C159.711 41.2657 159.119 39.6261 159.119 37.5537C159.119 35.5268 159.665 33.8416 160.781 32.498C161.942 31.0632 163.514 30.3345 165.472 30.3345C167.408 30.3345 168.866 31.0632 169.868 32.498C170.665 33.6822 171.052 35.0941 171.052 36.7566ZM168.205 35.9823C168.228 35.0941 168.023 34.3426 167.636 33.6822C167.112 32.8396 166.315 32.4296 165.267 32.4296C164.288 32.4296 163.491 32.8396 162.899 33.6366C162.398 34.2743 162.102 35.0486 162.011 35.9595L168.205 35.9823Z" fill="white"/>
<path d="M68.2501 18.8112H66.6788L65.8134 16.1239H62.83L62.0102 18.8112H60.4844L63.4222 9.65625H65.244L68.2501 18.8112ZM65.5856 15.008L64.8113 12.6168C64.7202 12.3663 64.5836 11.797 64.3559 10.886H64.3331C64.242 11.2732 64.1054 11.8425 63.9004 12.6168L63.1489 15.008H65.5856Z" fill="white"/>
<path d="M75.6322 12.2065L73.1272 18.8109H71.6924L69.2784 12.2065H70.8498L71.9885 15.6909C72.1707 16.283 72.3301 16.8296 72.4667 17.3534H72.5123C72.6261 16.8751 72.7856 16.3285 72.9905 15.6909L74.1064 12.2065C74.0837 12.2065 75.6322 12.2065 75.6322 12.2065Z" fill="white"/>
<path d="M80.9579 18.8106L80.8441 18.0591H80.7985C80.3431 18.674 79.7054 18.9701 78.8628 18.9701C77.6786 18.9701 76.8359 18.1502 76.8359 17.0343C76.8359 15.3946 78.2479 14.552 80.6847 14.552V14.4381C80.6847 13.5727 80.2292 13.14 79.3182 13.14C78.6578 13.14 78.0885 13.2995 77.5875 13.6411L77.2914 12.6846C77.9063 12.2974 78.6578 12.1152 79.5688 12.1152C81.2995 12.1152 82.1649 13.0262 82.1649 14.8481V17.2848C82.1649 17.9452 82.1877 18.469 82.256 18.8562L80.9579 18.8106ZM80.753 15.5313C79.1133 15.5313 78.3162 15.9184 78.3162 16.8521C78.3162 17.5353 78.7489 17.8769 79.3182 17.8769C80.0698 17.8769 80.753 17.3076 80.753 16.5333C80.753 16.5561 80.753 15.5313 80.753 15.5313Z" fill="white"/>
<path d="M85.4449 11.1134C84.9666 11.1134 84.5795 10.7263 84.5795 10.2253C84.5795 9.72424 84.9666 9.35986 85.4676 9.35986C85.9686 9.35986 86.3786 9.72424 86.3558 10.2253C86.3786 10.7718 85.9914 11.1134 85.4449 11.1134ZM86.1964 18.8109H84.7389V12.2065H86.1964V18.8109Z" fill="white"/>
<path d="M90.27 18.8109H88.8125V9.17773H90.27V18.8109Z" fill="white"/>
<path d="M96.5113 18.8106L96.3974 18.0591H96.3519C95.8964 18.674 95.2587 18.9701 94.4161 18.9701C93.2319 18.9701 92.3893 18.1502 92.3893 17.0343C92.3893 15.3946 93.8012 14.552 96.238 14.552V14.4381C96.238 13.5727 95.7825 13.14 94.8716 13.14C94.2112 13.14 93.6418 13.2995 93.1408 13.6411L92.8448 12.6846C93.4596 12.2974 94.2112 12.1152 95.1221 12.1152C96.8529 12.1152 97.7183 13.0262 97.7183 14.8481V17.2848C97.7183 17.9452 97.7411 18.469 97.8094 18.8562H96.5113V18.8106ZM96.3063 15.5313C94.6666 15.5313 93.8696 15.9184 93.8696 16.8521C93.8696 17.5353 94.3023 17.8769 94.8716 17.8769C95.6231 17.8769 96.3063 17.3076 96.3063 16.5333V15.5313Z" fill="white"/>
<path d="M103.681 18.9705C102.747 18.9705 102.041 18.5834 101.609 17.8091H101.586L101.495 18.8339H100.242C100.288 18.3101 100.288 17.6952 100.288 17.0575V9.20068H101.768V13.186H101.791C102.223 12.4573 102.929 12.0929 103.886 12.0929C105.48 12.0929 106.596 13.4593 106.596 15.4406C106.596 17.4675 105.366 18.9705 103.681 18.9705ZM103.385 13.2316C102.542 13.2316 101.768 13.9603 101.768 14.9851V16.1466C101.768 17.0575 102.451 17.8091 103.362 17.8091C104.455 17.8091 105.116 16.9209 105.116 15.4862C105.116 14.1425 104.433 13.2316 103.385 13.2316Z" fill="white"/>
<path d="M110.242 18.8109H108.784V9.17773H110.242V18.8109Z" fill="white"/>
<path d="M118.245 15.873H113.849C113.872 17.1255 114.715 17.8315 115.922 17.8315C116.582 17.8315 117.174 17.7176 117.698 17.5127L117.926 18.5375C117.311 18.8108 116.56 18.9474 115.717 18.9474C113.644 18.9474 112.438 17.6493 112.438 15.6225C112.438 13.5956 113.69 12.0698 115.557 12.0698C117.243 12.0698 118.313 13.3224 118.313 15.2126C118.29 15.4631 118.29 15.6908 118.245 15.873ZM116.901 14.8254C116.901 13.8006 116.377 13.0946 115.444 13.0946C114.601 13.0946 113.941 13.8234 113.849 14.8254H116.901Z" fill="white"/>
<path d="M127.143 18.9704C125.207 18.9704 123.954 17.5356 123.954 15.5771C123.954 13.5275 125.23 12.0928 127.257 12.0928C129.147 12.0928 130.445 13.4592 130.445 15.486C130.422 17.5356 129.101 18.9704 127.143 18.9704ZM127.188 13.1404C126.118 13.1404 125.458 14.1424 125.458 15.5088C125.458 16.8752 126.141 17.8545 127.188 17.8545C128.236 17.8545 128.919 16.7841 128.919 15.486C128.896 14.1652 128.213 13.1404 127.188 13.1404Z" fill="white"/>
<path d="M138.302 18.8108H136.845V15.0076C136.845 13.8462 136.389 13.254 135.524 13.254C134.658 13.254 134.043 14.0056 134.043 14.871V18.8108H132.586V14.0967C132.586 13.5046 132.563 12.8897 132.54 12.2065H133.838L133.907 13.2313H133.952C134.34 12.5253 135.159 12.0698 136.048 12.0698C137.437 12.0698 138.348 13.1402 138.348 14.8482L138.302 18.8108Z" fill="white"/>
<path d="M147.912 13.3225H146.295V16.5335C146.295 17.3534 146.569 17.7633 147.161 17.7633C147.411 17.7633 147.639 17.7405 147.821 17.695L147.867 18.8109C147.571 18.9248 147.206 18.9703 146.728 18.9703C145.567 18.9703 144.883 18.3327 144.883 16.6702V13.3453H143.927V12.2066H144.883V10.9996L146.318 10.5669V12.2066H147.935V13.3225H147.912Z" fill="white"/>
<path d="M155.681 18.8109H154.201V15.0533C154.201 13.8691 153.746 13.277 152.88 13.277C152.129 13.277 151.423 13.8008 151.423 14.8483V18.8109H149.943V9.17773H151.423V13.1403H151.446C151.901 12.4116 152.584 12.07 153.427 12.07C154.816 12.07 155.681 13.1631 155.681 14.8939V18.8109Z" fill="white"/>
<path d="M163.199 15.873H158.78C158.803 17.1255 159.646 17.8315 160.853 17.8315C161.513 17.8315 162.105 17.7176 162.629 17.5127L162.857 18.5375C162.242 18.8108 161.491 18.9474 160.648 18.9474C158.576 18.9474 157.369 17.6493 157.369 15.6225C157.369 13.5956 158.621 12.0698 160.488 12.0698C162.174 12.0698 163.244 13.3224 163.244 15.2126C163.244 15.4631 163.221 15.6908 163.199 15.873ZM161.855 14.8254C161.855 13.8006 161.331 13.0946 160.397 13.0946C159.555 13.0946 158.894 13.8234 158.803 14.8254H161.855Z" fill="white"/>
</svg>
