<svg width="193" height="56" viewBox="0 0 193 56" fill="none" xmlns="http://www.w3.org/2000/svg">
<path d="M184.957 56H7.90416C4.00559 56 0.828979 52.8603 0.828979 49.0071V7.02142C0.828979 3.16821 4.00559 0.0285645 7.90416 0.0285645H184.957C188.856 0.0285645 192.032 3.16821 192.032 7.02142V49.0071C192.032 52.8603 188.827 56 184.957 56Z" fill="black"/>
<path d="M184.957 1.11632C188.249 1.11632 190.906 3.74221 190.906 6.99603V48.9817C190.906 52.2356 188.249 54.8615 184.957 54.8615H7.90404C4.61191 54.8615 1.95512 52.2356 1.95512 48.9817V6.99603C1.95512 3.74221 4.61191 1.11632 7.90404 1.11632H184.957ZM184.957 0.00317383H7.90404C4.00547 0.00317383 0.828857 3.14282 0.828857 6.99603V48.9817C0.828857 52.835 4.00547 55.9746 7.90404 55.9746H184.957C188.855 55.9746 192.032 52.835 192.032 48.9817V6.99603C192.032 3.14282 188.827 0.00317383 184.957 0.00317383Z" fill="#A6A6A6"/>
<path d="M67.976 14.3569C67.976 15.5272 67.6295 16.4691 66.9364 17.1541C66.1278 17.9818 65.0882 18.4099 63.8176 18.4099C62.6047 18.4099 61.5362 17.9818 60.6987 17.1541C59.8323 16.2978 59.3992 15.2703 59.3992 14.0144C59.3992 12.7586 59.8323 11.731 60.6987 10.9033C61.565 10.0756 62.6047 9.64746 63.8176 9.64746C64.424 9.64746 65.0016 9.76162 65.5503 9.98996C66.0989 10.2183 66.561 10.5323 66.8787 10.9319L66.1278 11.674C65.5503 11.0175 64.7994 10.675 63.7887 10.675C62.8934 10.675 62.1137 10.9889 61.4784 11.6169C60.8142 12.2448 60.4966 13.044 60.4966 14.043C60.4966 15.042 60.8142 15.8411 61.4784 16.4691C62.1426 17.097 62.9223 17.411 63.7887 17.411C64.7417 17.411 65.5214 17.097 66.1567 16.4691C66.561 16.0695 66.8209 15.4986 66.8787 14.7565H63.7887V13.7576H67.8894C67.976 13.9288 67.976 14.1286 67.976 14.3569Z" fill="white" stroke="white" stroke-width="0.199309" stroke-miterlimit="10"/>
<path d="M74.5064 10.8461H70.6367V13.5005H74.131V14.4995H70.6367V17.154H74.5064V18.1815H69.5393V9.79004H74.5064C74.5064 9.81858 74.5064 10.8461 74.5064 10.8461Z" fill="white" stroke="white" stroke-width="0.199309" stroke-miterlimit="10"/>
<path d="M79.1182 18.2098H78.0208V10.8459H75.6528V9.81836H81.4862V10.8459H79.1182V18.2098Z" fill="white" stroke="white" stroke-width="0.199309" stroke-miterlimit="10"/>
<path d="M85.7039 18.2098V9.81836H86.8012V18.2098H85.7039Z" fill="white" stroke="white" stroke-width="0.199309" stroke-miterlimit="10"/>
<path d="M91.6531 18.2098H90.5558V10.8459H88.1877V9.81836H94.0212V10.8459H91.6531V18.2098Z" fill="white" stroke="white" stroke-width="0.199309" stroke-miterlimit="10"/>
<path d="M105.084 17.1253C104.247 17.9815 103.207 18.4097 101.965 18.4097C100.723 18.4097 99.6838 17.9815 98.8464 17.1253C98.0089 16.269 97.6046 15.2415 97.6046 14.0142C97.6046 12.7868 98.0089 11.7308 98.8464 10.9031C99.6838 10.0468 100.723 9.61865 101.965 9.61865C103.207 9.61865 104.247 10.0468 105.084 10.9031C105.922 11.7593 106.355 12.7868 106.355 14.0142C106.326 15.2415 105.922 16.269 105.084 17.1253ZM99.655 16.4117C100.29 17.0396 101.041 17.3536 101.965 17.3536C102.86 17.3536 103.64 17.0396 104.275 16.4117C104.911 15.7838 105.228 14.9846 105.228 13.9856C105.228 12.9866 104.911 12.1875 104.275 11.5595C103.64 10.9316 102.889 10.6176 101.965 10.6176C101.041 10.6176 100.29 10.9316 99.655 11.5595C99.0196 12.1875 98.702 12.9866 98.702 13.9856C98.702 14.9846 99.0196 15.7838 99.655 16.4117Z" fill="white" stroke="white" stroke-width="0.199309" stroke-miterlimit="10"/>
<path d="M107.852 18.2098V9.81836H109.181L113.31 16.3546H113.368L113.31 14.7276V9.81836H114.408V18.2098H113.281L108.95 11.3597H108.892L108.95 12.9866V18.2098H107.852Z" fill="white" stroke="white" stroke-width="0.199309" stroke-miterlimit="10"/>
<path d="M97.3198 30.4547C93.9988 30.4547 91.2842 32.9664 91.2842 36.42C91.2842 39.8451 93.9988 42.3853 97.3198 42.3853C100.641 42.3853 103.384 39.8451 103.384 36.42C103.384 32.9664 100.67 30.4547 97.3198 30.4547ZM97.3198 40.0163C95.5005 40.0163 93.9122 38.5321 93.9122 36.42C93.9122 34.2793 95.4715 32.8237 97.3198 32.8237C99.168 32.8237 100.727 34.2793 100.727 36.42C100.727 38.5321 99.1391 40.0163 97.3198 40.0163ZM84.1512 30.4547C80.8302 30.4547 78.1157 32.9664 78.1157 36.42C78.1157 39.8451 80.8302 42.3853 84.1512 42.3853C87.4722 42.3853 90.1868 39.8451 90.1868 36.42C90.1868 32.9664 87.4722 30.4547 84.1512 30.4547ZM84.1512 40.0163C82.3319 40.0163 80.7436 38.5321 80.7436 36.42C80.7436 34.2793 82.3319 32.8237 84.1512 32.8237C85.9705 32.8237 87.5588 34.2793 87.5588 36.42C87.5301 38.5321 85.9705 40.0163 84.1512 40.0163ZM68.4414 32.2814V34.8216H74.5636C74.3903 36.2488 73.8994 37.2763 73.1774 37.9898C72.2822 38.8746 70.8961 39.8451 68.4414 39.8451C64.6872 39.8451 61.7416 36.8481 61.7416 33.1376C61.7416 29.4271 64.6872 26.4302 68.4414 26.4302C70.4629 26.4302 71.9646 27.2294 73.0619 28.2284L74.8525 26.4587C73.3219 25.0031 71.3004 23.9185 68.4414 23.9185C63.2722 23.9185 58.9406 28.0571 58.9406 33.1662C58.9406 38.2753 63.2722 42.4139 68.4414 42.4139C71.2426 42.4139 73.3219 41.5005 74.968 39.8165C76.6429 38.1611 77.1915 35.7921 77.1915 33.9083C77.1915 33.3089 77.1339 32.7666 77.0472 32.3385C77.0472 32.2814 68.4414 32.2814 68.4414 32.2814ZM132.609 34.2508C132.118 32.9093 130.588 30.4547 127.44 30.4547C124.35 30.4547 121.751 32.8808 121.751 36.42C121.751 39.7595 124.292 42.3853 127.729 42.3853C130.501 42.3853 132.089 40.7299 132.753 39.7595L130.703 38.418C130.01 39.4169 129.086 40.0734 127.729 40.0734C126.4 40.0734 125.418 39.474 124.812 38.2753L132.869 34.9929C132.898 34.9073 132.609 34.2508 132.609 34.2508ZM124.408 36.2202C124.35 33.9368 126.198 32.7381 127.555 32.7381C128.595 32.7381 129.49 33.2518 129.808 33.9939C129.779 34.0225 124.408 36.2202 124.408 36.2202ZM117.852 42.0143H120.509V24.5179H117.852V42.0143ZM113.521 31.7676H113.434C112.827 31.0826 111.701 30.4547 110.257 30.4547C107.254 30.4547 104.482 33.0806 104.482 36.42C104.482 39.7595 107.254 42.3568 110.257 42.3568C111.701 42.3568 112.827 41.7289 113.434 41.0153H113.521V41.8716C113.521 44.155 112.279 45.3823 110.315 45.3823C108.698 45.3823 107.687 44.2406 107.283 43.2702L104.973 44.212C105.637 45.7819 107.398 47.7228 110.315 47.7228C113.434 47.7228 116.033 45.9246 116.033 41.5291V30.8257H113.521V31.7676ZM110.488 40.0163C108.669 40.0163 107.138 38.5036 107.138 36.42C107.138 34.3079 108.669 32.7951 110.488 32.7951C112.279 32.7951 113.694 34.3364 113.694 36.42C113.694 38.5036 112.279 40.0163 110.488 40.0163ZM145.027 24.4893H138.702V41.9858H141.33V35.3639H145.027C147.972 35.3639 150.831 33.2518 150.831 29.9409C150.831 26.6015 147.943 24.4893 145.027 24.4893ZM145.085 32.9378H141.33V26.944H145.085C147.048 26.944 148.174 28.5709 148.174 29.9409C148.174 31.2824 147.048 32.9378 145.085 32.9378ZM161.43 30.4261C159.524 30.4261 157.531 31.2538 156.722 33.1091L159.062 34.0795C159.553 33.1091 160.506 32.7951 161.487 32.7951C162.845 32.7951 164.26 33.6229 164.26 35.05V35.2212C163.769 34.9358 162.758 34.5362 161.487 34.5362C158.975 34.5362 156.376 35.9062 156.376 38.4751C156.376 40.8155 158.455 42.3283 160.765 42.3283C162.556 42.3283 163.538 41.5291 164.144 40.6157H164.231V41.9572H166.772V35.2498C166.801 32.1672 164.462 30.4261 161.43 30.4261ZM161.112 40.0163C160.246 40.0163 159.033 39.5882 159.033 38.5321C159.033 37.1906 160.534 36.6483 161.834 36.6483C162.989 36.6483 163.538 36.9052 164.26 37.2477C164.029 38.8746 162.643 40.0163 161.112 40.0163ZM176.1 30.7972L173.068 38.3894H172.981L169.833 30.7972H166.974L171.681 41.3864L168.996 47.2946H171.768L179.045 30.7972H176.1ZM152.275 42.0143H154.932V24.5179H152.275V42.0143Z" fill="white"/>
<path d="M15.5919 10.5604C15.1876 10.9885 14.9277 11.6735 14.9277 12.5298V43.4982C14.9277 44.3544 15.1588 45.0395 15.5919 45.4676L15.7075 45.5532L33.2655 28.1995V27.7999L15.7075 10.4462L15.5919 10.5604Z" fill="url(#paint0_linear_3914_177757)"/>
<path d="M39.1034 33.9937L33.27 28.1996V27.8L39.1323 22.0059L39.2767 22.0915L46.2075 26.0018C48.1712 27.115 48.1712 28.9417 46.2075 30.0548L39.2767 33.9366C39.2478 33.908 39.1034 33.9937 39.1034 33.9937Z" fill="url(#paint1_linear_3914_177757)"/>
<path d="M39.2399 33.9084L33.2621 28.0001L15.6174 45.4395C16.2816 46.1245 17.3501 46.2101 18.563 45.5251L39.2399 33.9084Z" fill="url(#paint2_linear_3914_177757)"/>
<path d="M39.2353 22.0917L18.5296 10.475C17.3167 9.79002 16.2482 9.87564 15.584 10.5606L33.2286 28L39.2353 22.0917Z" fill="url(#paint3_linear_3914_177757)"/>
<defs>
<linearGradient id="paint0_linear_3914_177757" x1="31.6911" y1="43.8083" x2="2.60406" y2="14.0313" gradientUnits="userSpaceOnUse">
<stop stop-color="#00A0FF"/>
<stop offset="0.0066" stop-color="#00A1FF"/>
<stop offset="0.2601" stop-color="#00BEFF"/>
<stop offset="0.5122" stop-color="#00D2FF"/>
<stop offset="0.7604" stop-color="#00DFFF"/>
<stop offset="1" stop-color="#00E3FF"/>
</linearGradient>
<linearGradient id="paint1_linear_3914_177757" x1="48.7435" y1="28.0017" x2="5.7991" y2="28.0017" gradientUnits="userSpaceOnUse">
<stop stop-color="#FFE000"/>
<stop offset="0.4087" stop-color="#FFBD00"/>
<stop offset="0.7754" stop-color="#FFA500"/>
<stop offset="1" stop-color="#FF9C00"/>
</linearGradient>
<linearGradient id="paint2_linear_3914_177757" x1="24.1575" y1="36.4693" x2="-15.2869" y2="-3.91077" gradientUnits="userSpaceOnUse">
<stop stop-color="#FF3A44"/>
<stop offset="1" stop-color="#C31162"/>
</linearGradient>
<linearGradient id="paint3_linear_3914_177757" x1="-0.673736" y1="44.0749" x2="16.94" y2="26.0435" gradientUnits="userSpaceOnUse">
<stop stop-color="#32A071"/>
<stop offset="0.0685" stop-color="#2DA771"/>
<stop offset="0.4762" stop-color="#15CF74"/>
<stop offset="0.8009" stop-color="#06E775"/>
<stop offset="1" stop-color="#00F076"/>
</linearGradient>
</defs>
</svg>
