<svg width="24" height="24" viewBox="0 0 24 24" fill="none" xmlns="http://www.w3.org/2000/svg">
<path d="M20.2013 21.3025C19.9476 21.3025 19.6094 21.1333 19.4402 20.8796C17.8334 18.258 15.0426 16.6512 11.9982 16.6512C8.95367 16.6512 6.1629 18.258 4.55609 20.8796C4.30238 21.3025 3.79497 21.387 3.37212 21.1333C2.94928 20.8796 2.86471 20.3722 3.11842 19.9494C4.97893 16.8203 8.36169 14.8752 11.9982 14.8752C15.6346 14.8752 19.0174 16.7358 20.8779 19.9494C21.1316 20.3722 20.9625 20.8796 20.6242 21.1333C20.455 21.3025 20.2859 21.3025 20.2013 21.3025Z" fill="#8F9BB3"/>
<path d="M11.9982 12.8457C9.20743 12.8457 6.92407 10.5623 6.92407 7.77152C6.92407 4.98075 9.20743 2.69739 11.9982 2.69739C14.789 2.69739 17.0723 4.98075 17.0723 7.77152C17.0723 10.5623 14.789 12.8457 11.9982 12.8457ZM11.9982 4.38877C10.1377 4.38877 8.61545 5.91101 8.61545 7.77152C8.61545 9.63204 10.1377 11.1543 11.9982 11.1543C13.8587 11.1543 15.381 9.63204 15.381 7.77152C15.381 5.91101 13.8587 4.38877 11.9982 4.38877Z" fill="#8F9BB3"/>
</svg>
