<svg width="80" height="80" viewBox="0 0 80 80" fill="none" xmlns="http://www.w3.org/2000/svg">
<rect width="80" height="80" rx="25" fill="#007FFF"/>
<path d="M32.2 55.9999H25C24.5 55.9999 24 55.4999 24 54.9999V47.6999C24 47.1 24.5 46.7 25 46.7H32V54.9999C32 55.2999 32.1 55.6999 32.2 55.9999Z" fill="white"/>
<path d="M46 43V55C46 55.5 45.5 56 45 56H35C34.5 56 34 55.5 34 55V43C34 42.4 34.5 42 35 42H45C45.5 42 46 42.4 46 43Z" fill="white"/>
<path d="M55.9999 49V55C55.9999 55.5 55.4999 56 54.9999 56H47.7999C47.8999 55.7 47.9999 55.3 47.9999 55V48H54.9999C55.4999 48 55.9999 48.4 55.9999 49Z" fill="white"/>
<path d="M48.1 31L44.8 34.2L45.6 38.8C45.7 39.2 45.5 39.6 45.2 39.8C44.9 40 44.4 40 44.1 39.9L40 37.7L35.9 39.8C35.6 40 35.2 40 34.9 39.7C34.6 39.5 34.4 39.1 34.5 38.7L35.3 34.1L31.9 31C31.7 30.8 31.6 30.4 31.7 30C31.8 29.6 32.1 29.4 32.5 29.3L37.1 28.6L39.1 24.5C39.4 23.8 40.6 23.8 40.9 24.5L42.9 28.6L47.5 29.3C47.9 29.4 48.2 29.6 48.3 30C48.4 30.4 48.3 30.8 48.1 31Z" fill="white"/>
</svg>
