<svg width="80" height="80" viewBox="0 0 80 80" fill="none" xmlns="http://www.w3.org/2000/svg">
<rect width="80" height="80" rx="25" fill="#F28B1F"/>
<path d="M51.0501 23H29.9626C27.7846 23 26.0126 24.7719 26.0126 26.9499V51.05C26.0126 53.2281 27.7846 55 29.9625 55H51.05C51.5678 55 51.9875 54.5802 51.9875 54.0625V48.0375V23.9375C51.9876 23.4197 51.5679 23 51.0501 23ZM32.0834 34.0501C32.1938 33.7108 32.4871 33.4634 32.8402 33.4121L36.5159 32.8781L38.1594 29.5476C38.3173 29.2276 38.6432 29.025 39 29.025C39.3569 29.025 39.6829 29.2276 39.8408 29.5476L41.4844 32.8781L45.1598 33.4121C45.5129 33.4634 45.8064 33.7108 45.9166 34.0501C46.0269 34.3895 45.9349 34.7621 45.6794 35.0111L43.0201 37.6037L43.6391 41.2132C43.6545 41.2806 43.6626 41.3507 43.6626 41.4228C43.6626 41.94 43.2436 42.3594 42.7265 42.3603C42.7256 42.3603 42.7247 42.3603 42.7237 42.3603C42.5745 42.3603 42.4248 42.3247 42.2876 42.2526L39.0001 40.5241L35.7126 42.2525C35.5754 42.3246 35.4256 42.3603 35.2764 42.3603C35.082 42.3603 34.8886 42.2999 34.7253 42.1812C34.4366 41.9716 34.2919 41.6159 34.3523 41.2642L34.9803 37.6038L32.3206 35.0112C32.0652 34.7621 31.9732 34.3895 32.0834 34.0501ZM50.1126 53.125H29.9626C28.8184 53.125 27.8876 52.1941 27.8876 51.05C27.8876 51.0106 27.8889 50.9714 27.8911 50.9324C27.9523 49.8427 28.8579 48.975 29.9626 48.975H43.5501H50.1126V53.125Z" fill="white"/>
</svg>
